<svg width="786" height="1024" viewBox="0 0 786 1024" fill="none" xmlns="http://www.w3.org/2000/svg">
<mask id="mask0_1_51" style="mask-type:alpha" maskUnits="userSpaceOnUse" x="0" y="0" width="786" height="1024">
<rect width="786" height="1024" fill="#050C44"/>
</mask>
<g mask="url(#mask0_1_51)">
<path d="M10 -39C171.5 54.1667 581.2 235.9 928 217.5M-43 533.5C-20 533.5 272.5 315.5 570.5 355C808.9 386.6 969.833 472.833 1020.5 512M-16.5 932C0.833334 839.5 89 651.5 303 639.5C517 627.5 822.167 923.5 948 1073" stroke="#101858" stroke-width="6"/>
<path d="M180.818 319L172.188 296.254H172.047C172.094 296.734 172.135 297.32 172.17 298.012C172.205 298.703 172.234 299.459 172.258 300.279C172.281 301.088 172.293 301.914 172.293 302.758V319H169.516V293.301H173.945L182.084 314.676H182.207L190.469 293.301H194.863V319H191.91V302.547C191.91 301.785 191.922 301.023 191.945 300.262C191.969 299.488 191.998 298.762 192.033 298.082C192.068 297.391 192.104 296.793 192.139 296.289H191.998L183.262 319H180.818ZM208.662 299.418C210.959 299.418 212.664 299.934 213.777 300.965C214.891 301.996 215.447 303.643 215.447 305.904V319H213.32L212.758 316.152H212.617C212.078 316.855 211.516 317.447 210.93 317.928C210.344 318.396 209.664 318.754 208.891 319C208.129 319.234 207.191 319.352 206.078 319.352C204.906 319.352 203.863 319.146 202.949 318.736C202.047 318.326 201.332 317.705 200.805 316.873C200.289 316.041 200.031 314.986 200.031 313.709C200.031 311.787 200.793 310.311 202.316 309.279C203.84 308.248 206.16 307.686 209.277 307.592L212.6 307.451V306.273C212.6 304.609 212.242 303.443 211.527 302.775C210.812 302.107 209.805 301.773 208.504 301.773C207.496 301.773 206.535 301.92 205.621 302.213C204.707 302.506 203.84 302.852 203.02 303.25L202.123 301.035C202.99 300.59 203.986 300.209 205.111 299.893C206.236 299.576 207.42 299.418 208.662 299.418ZM212.564 309.508L209.629 309.631C207.227 309.725 205.533 310.117 204.549 310.809C203.564 311.5 203.072 312.479 203.072 313.744C203.072 314.846 203.406 315.66 204.074 316.188C204.742 316.715 205.627 316.979 206.729 316.979C208.439 316.979 209.84 316.504 210.93 315.555C212.02 314.605 212.564 313.182 212.564 311.283V309.508ZM230.582 299.383C232.867 299.383 234.596 299.945 235.768 301.07C236.939 302.184 237.525 303.977 237.525 306.449V319H234.643V306.643C234.643 305.037 234.273 303.836 233.535 303.039C232.809 302.242 231.689 301.844 230.178 301.844C228.045 301.844 226.545 302.447 225.678 303.654C224.811 304.861 224.377 306.613 224.377 308.91V319H221.459V299.734H223.814L224.254 302.512H224.412C224.822 301.832 225.344 301.264 225.977 300.807C226.609 300.338 227.318 299.986 228.104 299.752C228.889 299.506 229.715 299.383 230.582 299.383ZM250.744 299.418C253.041 299.418 254.746 299.934 255.859 300.965C256.973 301.996 257.529 303.643 257.529 305.904V319H255.402L254.84 316.152H254.699C254.16 316.855 253.598 317.447 253.012 317.928C252.426 318.396 251.746 318.754 250.973 319C250.211 319.234 249.273 319.352 248.16 319.352C246.988 319.352 245.945 319.146 245.031 318.736C244.129 318.326 243.414 317.705 242.887 316.873C242.371 316.041 242.113 314.986 242.113 313.709C242.113 311.787 242.875 310.311 244.398 309.279C245.922 308.248 248.242 307.686 251.359 307.592L254.682 307.451V306.273C254.682 304.609 254.324 303.443 253.609 302.775C252.895 302.107 251.887 301.773 250.586 301.773C249.578 301.773 248.617 301.92 247.703 302.213C246.789 302.506 245.922 302.852 245.102 303.25L244.205 301.035C245.072 300.59 246.068 300.209 247.193 299.893C248.318 299.576 249.502 299.418 250.744 299.418ZM254.646 309.508L251.711 309.631C249.309 309.725 247.615 310.117 246.631 310.809C245.646 311.5 245.154 312.479 245.154 313.744C245.154 314.846 245.488 315.66 246.156 316.188C246.824 316.715 247.709 316.979 248.811 316.979C250.521 316.979 251.922 316.504 253.012 315.555C254.102 314.605 254.646 313.182 254.646 311.283V309.508ZM268.92 327.648C266.389 327.648 264.438 327.174 263.066 326.225C261.695 325.287 261.01 323.969 261.01 322.27C261.01 321.062 261.391 320.031 262.152 319.176C262.926 318.32 263.992 317.752 265.352 317.471C264.848 317.236 264.414 316.885 264.051 316.416C263.699 315.947 263.523 315.408 263.523 314.799C263.523 314.096 263.717 313.48 264.104 312.953C264.502 312.414 265.105 311.898 265.914 311.406C264.906 310.996 264.086 310.305 263.453 309.332C262.832 308.348 262.521 307.205 262.521 305.904C262.521 304.521 262.809 303.344 263.383 302.371C263.957 301.387 264.789 300.637 265.879 300.121C266.969 299.605 268.287 299.348 269.834 299.348C270.174 299.348 270.514 299.365 270.854 299.4C271.205 299.424 271.539 299.465 271.855 299.523C272.172 299.57 272.447 299.629 272.682 299.699H279.291V301.58L275.74 302.02C276.092 302.477 276.385 303.027 276.619 303.672C276.854 304.316 276.971 305.031 276.971 305.816C276.971 307.738 276.32 309.268 275.02 310.404C273.719 311.529 271.932 312.092 269.658 312.092C269.119 312.092 268.568 312.045 268.006 311.951C267.432 312.268 266.992 312.619 266.688 313.006C266.395 313.393 266.248 313.838 266.248 314.342C266.248 314.717 266.359 315.016 266.582 315.238C266.816 315.461 267.15 315.625 267.584 315.73C268.018 315.824 268.539 315.871 269.148 315.871H272.541C274.639 315.871 276.244 316.311 277.357 317.189C278.482 318.068 279.045 319.352 279.045 321.039C279.045 323.172 278.178 324.807 276.443 325.943C274.709 327.08 272.201 327.648 268.92 327.648ZM269.008 325.363C270.602 325.363 271.92 325.199 272.963 324.871C274.018 324.555 274.803 324.092 275.318 323.482C275.846 322.885 276.109 322.17 276.109 321.338C276.109 320.564 275.934 319.979 275.582 319.58C275.23 319.193 274.715 318.936 274.035 318.807C273.355 318.666 272.523 318.596 271.539 318.596H268.199C267.332 318.596 266.576 318.73 265.932 319C265.287 319.27 264.789 319.668 264.438 320.195C264.098 320.723 263.928 321.379 263.928 322.164C263.928 323.207 264.367 323.998 265.246 324.537C266.125 325.088 267.379 325.363 269.008 325.363ZM269.764 309.965C271.158 309.965 272.207 309.613 272.91 308.91C273.613 308.207 273.965 307.182 273.965 305.834C273.965 304.393 273.607 303.314 272.893 302.6C272.178 301.873 271.123 301.51 269.729 301.51C268.393 301.51 267.361 301.885 266.635 302.635C265.92 303.373 265.562 304.457 265.562 305.887C265.562 307.199 265.926 308.207 266.652 308.91C267.379 309.613 268.416 309.965 269.764 309.965ZM290.506 299.383C292.146 299.383 293.553 299.746 294.725 300.473C295.896 301.199 296.793 302.219 297.414 303.531C298.035 304.832 298.346 306.355 298.346 308.102V309.912H285.039C285.074 312.174 285.637 313.896 286.727 315.08C287.816 316.264 289.352 316.855 291.332 316.855C292.551 316.855 293.629 316.744 294.566 316.521C295.504 316.299 296.477 315.971 297.484 315.537V318.104C296.512 318.537 295.545 318.854 294.584 319.053C293.635 319.252 292.51 319.352 291.209 319.352C289.357 319.352 287.74 318.977 286.357 318.227C284.986 317.465 283.92 316.352 283.158 314.887C282.396 313.422 282.016 311.629 282.016 309.508C282.016 307.434 282.361 305.641 283.053 304.129C283.756 302.605 284.74 301.434 286.006 300.613C287.283 299.793 288.783 299.383 290.506 299.383ZM290.471 301.773C288.912 301.773 287.67 302.283 286.744 303.303C285.818 304.322 285.268 305.746 285.092 307.574H295.287C295.275 306.426 295.094 305.418 294.742 304.551C294.402 303.672 293.881 302.992 293.178 302.512C292.475 302.02 291.572 301.773 290.471 301.773ZM328.545 319L326.682 312.883H317.312L315.449 319H309.578L318.648 293.195H325.311L334.416 319H328.545ZM325.381 308.312L323.518 302.336C323.4 301.938 323.242 301.428 323.043 300.807C322.855 300.174 322.662 299.535 322.463 298.891C322.275 298.234 322.123 297.666 322.006 297.186C321.889 297.666 321.725 298.264 321.514 298.979C321.314 299.682 321.121 300.35 320.934 300.982C320.746 301.615 320.611 302.066 320.529 302.336L318.684 308.312H325.381ZM345.525 315.08C346.111 315.08 346.68 315.021 347.23 314.904C347.793 314.787 348.35 314.641 348.9 314.465V318.455C348.326 318.713 347.611 318.924 346.756 319.088C345.912 319.264 344.986 319.352 343.979 319.352C342.807 319.352 341.752 319.164 340.814 318.789C339.889 318.402 339.156 317.74 338.617 316.803C338.09 315.854 337.826 314.535 337.826 312.848V303.373H335.26V301.105L338.213 299.312L339.76 295.164H343.188V299.348H348.689V303.373H343.188V312.848C343.188 313.598 343.398 314.16 343.82 314.535C344.254 314.898 344.822 315.08 345.525 315.08ZM361.17 315.08C361.756 315.08 362.324 315.021 362.875 314.904C363.438 314.787 363.994 314.641 364.545 314.465V318.455C363.971 318.713 363.256 318.924 362.4 319.088C361.557 319.264 360.631 319.352 359.623 319.352C358.451 319.352 357.396 319.164 356.459 318.789C355.533 318.402 354.801 317.74 354.262 316.803C353.734 315.854 353.471 314.535 353.471 312.848V303.373H350.904V301.105L353.857 299.312L355.404 295.164H358.832V299.348H364.334V303.373H358.832V312.848C358.832 313.598 359.043 314.16 359.465 314.535C359.898 314.898 360.467 315.08 361.17 315.08ZM376.639 298.979C378.455 298.979 380.02 299.33 381.332 300.033C382.645 300.725 383.658 301.732 384.373 303.057C385.088 304.381 385.445 305.998 385.445 307.908V310.51H372.771C372.83 312.021 373.281 313.211 374.125 314.078C374.98 314.934 376.164 315.361 377.676 315.361C378.93 315.361 380.078 315.232 381.121 314.975C382.164 314.717 383.236 314.33 384.338 313.814V317.963C383.365 318.443 382.346 318.795 381.279 319.018C380.225 319.24 378.941 319.352 377.43 319.352C375.461 319.352 373.715 318.988 372.191 318.262C370.68 317.535 369.49 316.428 368.623 314.939C367.768 313.451 367.34 311.576 367.34 309.314C367.34 307.018 367.727 305.107 368.5 303.584C369.285 302.049 370.375 300.9 371.77 300.139C373.164 299.365 374.787 298.979 376.639 298.979ZM376.674 302.793C375.631 302.793 374.764 303.127 374.072 303.795C373.393 304.463 373 305.512 372.895 306.941H380.418C380.406 306.145 380.26 305.436 379.979 304.814C379.709 304.193 379.299 303.701 378.748 303.338C378.209 302.975 377.518 302.793 376.674 302.793ZM400.967 298.979C403.064 298.979 404.752 299.553 406.029 300.701C407.307 301.838 407.945 303.666 407.945 306.186V319H402.584V307.521C402.584 306.115 402.326 305.055 401.811 304.34C401.307 303.625 400.51 303.268 399.42 303.268C397.779 303.268 396.66 303.824 396.062 304.938C395.465 306.051 395.166 307.656 395.166 309.754V319H389.805V299.348H393.9L394.621 301.861H394.92C395.342 301.182 395.863 300.631 396.484 300.209C397.117 299.787 397.814 299.477 398.576 299.277C399.35 299.078 400.146 298.979 400.967 298.979ZM419.688 319.352C417.496 319.352 415.709 318.496 414.326 316.785C412.955 315.062 412.27 312.537 412.27 309.209C412.27 305.846 412.967 303.303 414.361 301.58C415.756 299.846 417.578 298.979 419.828 298.979C420.766 298.979 421.592 299.107 422.307 299.365C423.021 299.623 423.637 299.969 424.152 300.402C424.68 300.836 425.125 301.322 425.488 301.861H425.664C425.594 301.486 425.506 300.936 425.4 300.209C425.307 299.471 425.26 298.715 425.26 297.941V291.648H430.639V319H426.525L425.488 316.451H425.26C424.92 316.99 424.492 317.482 423.977 317.928C423.473 318.361 422.869 318.707 422.166 318.965C421.463 319.223 420.637 319.352 419.688 319.352ZM421.568 315.08C423.033 315.08 424.064 314.646 424.662 313.779C425.271 312.9 425.594 311.582 425.629 309.824V309.244C425.629 307.334 425.336 305.875 424.75 304.867C424.164 303.848 423.074 303.338 421.48 303.338C420.297 303.338 419.371 303.848 418.703 304.867C418.035 305.887 417.701 307.357 417.701 309.279C417.701 311.201 418.035 312.648 418.703 313.621C419.383 314.594 420.338 315.08 421.568 315.08ZM444.297 298.943C446.934 298.943 448.955 299.518 450.361 300.666C451.768 301.814 452.471 303.561 452.471 305.904V319H448.727L447.689 316.328H447.549C446.986 317.031 446.412 317.605 445.826 318.051C445.24 318.496 444.566 318.824 443.805 319.035C443.043 319.246 442.117 319.352 441.027 319.352C439.867 319.352 438.824 319.129 437.898 318.684C436.984 318.238 436.264 317.559 435.736 316.645C435.209 315.719 434.945 314.547 434.945 313.129C434.945 311.043 435.678 309.508 437.143 308.523C438.607 307.527 440.805 306.977 443.734 306.871L447.145 306.766V305.904C447.145 304.873 446.875 304.117 446.336 303.637C445.797 303.156 445.047 302.916 444.086 302.916C443.137 302.916 442.205 303.051 441.291 303.32C440.377 303.59 439.463 303.93 438.549 304.34L436.773 300.719C437.816 300.168 438.982 299.734 440.271 299.418C441.572 299.102 442.914 298.943 444.297 298.943ZM447.145 309.895L445.07 309.965C443.336 310.012 442.129 310.322 441.449 310.896C440.781 311.471 440.447 312.227 440.447 313.164C440.447 313.984 440.688 314.57 441.168 314.922C441.648 315.262 442.275 315.432 443.049 315.432C444.197 315.432 445.164 315.092 445.949 314.412C446.746 313.732 447.145 312.766 447.145 311.512V309.895ZM469.17 298.979C471.268 298.979 472.955 299.553 474.232 300.701C475.51 301.838 476.148 303.666 476.148 306.186V319H470.787V307.521C470.787 306.115 470.529 305.055 470.014 304.34C469.51 303.625 468.713 303.268 467.623 303.268C465.982 303.268 464.863 303.824 464.266 304.938C463.668 306.051 463.369 307.656 463.369 309.754V319H458.008V299.348H462.104L462.824 301.861H463.123C463.545 301.182 464.066 300.631 464.688 300.209C465.32 299.787 466.018 299.477 466.779 299.277C467.553 299.078 468.35 298.979 469.17 298.979ZM489.648 319.352C487.703 319.352 486.045 319 484.674 318.297C483.303 317.582 482.26 316.48 481.545 314.992C480.83 313.504 480.473 311.6 480.473 309.279C480.473 306.877 480.877 304.92 481.686 303.408C482.506 301.885 483.637 300.766 485.078 300.051C486.531 299.336 488.213 298.979 490.123 298.979C491.482 298.979 492.654 299.113 493.639 299.383C494.635 299.641 495.502 299.951 496.24 300.314L494.658 304.463C493.814 304.123 493.029 303.848 492.303 303.637C491.576 303.414 490.85 303.303 490.123 303.303C489.186 303.303 488.406 303.525 487.785 303.971C487.164 304.404 486.701 305.061 486.396 305.939C486.092 306.818 485.939 307.92 485.939 309.244C485.939 310.545 486.104 311.623 486.432 312.479C486.76 313.334 487.234 313.973 487.855 314.395C488.477 314.805 489.232 315.01 490.123 315.01C491.236 315.01 492.227 314.863 493.094 314.57C493.961 314.266 494.805 313.844 495.625 313.305V317.893C494.805 318.408 493.943 318.777 493.041 319C492.15 319.234 491.02 319.352 489.648 319.352ZM508.299 298.979C510.115 298.979 511.68 299.33 512.992 300.033C514.305 300.725 515.318 301.732 516.033 303.057C516.748 304.381 517.105 305.998 517.105 307.908V310.51H504.432C504.49 312.021 504.941 313.211 505.785 314.078C506.641 314.934 507.824 315.361 509.336 315.361C510.59 315.361 511.738 315.232 512.781 314.975C513.824 314.717 514.896 314.33 515.998 313.814V317.963C515.025 318.443 514.006 318.795 512.939 319.018C511.885 319.24 510.602 319.352 509.09 319.352C507.121 319.352 505.375 318.988 503.852 318.262C502.34 317.535 501.15 316.428 500.283 314.939C499.428 313.451 499 311.576 499 309.314C499 307.018 499.387 305.107 500.16 303.584C500.945 302.049 502.035 300.9 503.43 300.139C504.824 299.365 506.447 298.979 508.299 298.979ZM508.334 302.793C507.291 302.793 506.424 303.127 505.732 303.795C505.053 304.463 504.66 305.512 504.555 306.941H512.078C512.066 306.145 511.92 305.436 511.639 304.814C511.369 304.193 510.959 303.701 510.408 303.338C509.869 302.975 509.178 302.793 508.334 302.793ZM545.828 319H531.52V293.301H545.828V295.938H534.508V304.252H545.178V306.854H534.508V316.363H545.828V319ZM558.291 299.418C560.588 299.418 562.293 299.934 563.406 300.965C564.52 301.996 565.076 303.643 565.076 305.904V319H562.949L562.387 316.152H562.246C561.707 316.855 561.145 317.447 560.559 317.928C559.973 318.396 559.293 318.754 558.52 319C557.758 319.234 556.82 319.352 555.707 319.352C554.535 319.352 553.492 319.146 552.578 318.736C551.676 318.326 550.961 317.705 550.434 316.873C549.918 316.041 549.66 314.986 549.66 313.709C549.66 311.787 550.422 310.311 551.945 309.279C553.469 308.248 555.789 307.686 558.906 307.592L562.229 307.451V306.273C562.229 304.609 561.871 303.443 561.156 302.775C560.441 302.107 559.434 301.773 558.133 301.773C557.125 301.773 556.164 301.92 555.25 302.213C554.336 302.506 553.469 302.852 552.648 303.25L551.752 301.035C552.619 300.59 553.615 300.209 554.74 299.893C555.865 299.576 557.049 299.418 558.291 299.418ZM562.193 309.508L559.258 309.631C556.855 309.725 555.162 310.117 554.178 310.809C553.193 311.5 552.701 312.479 552.701 313.744C552.701 314.846 553.035 315.66 553.703 316.188C554.371 316.715 555.256 316.979 556.357 316.979C558.068 316.979 559.469 316.504 560.559 315.555C561.648 314.605 562.193 313.182 562.193 311.283V309.508ZM583.551 313.727C583.551 314.957 583.24 315.994 582.619 316.838C582.01 317.67 581.131 318.297 579.982 318.719C578.846 319.141 577.486 319.352 575.904 319.352C574.557 319.352 573.391 319.246 572.406 319.035C571.422 318.824 570.561 318.525 569.822 318.139V315.449C570.607 315.836 571.545 316.188 572.635 316.504C573.725 316.82 574.838 316.979 575.975 316.979C577.639 316.979 578.846 316.709 579.596 316.17C580.346 315.631 580.721 314.898 580.721 313.973C580.721 313.445 580.568 312.982 580.264 312.584C579.971 312.174 579.473 311.781 578.77 311.406C578.066 311.02 577.094 310.598 575.852 310.141C574.621 309.672 573.555 309.209 572.652 308.752C571.762 308.283 571.07 307.715 570.578 307.047C570.098 306.379 569.857 305.512 569.857 304.445C569.857 302.816 570.514 301.568 571.826 300.701C573.15 299.822 574.885 299.383 577.029 299.383C578.189 299.383 579.273 299.5 580.281 299.734C581.301 299.957 582.25 300.262 583.129 300.648L582.145 302.986C581.348 302.646 580.498 302.359 579.596 302.125C578.693 301.891 577.773 301.773 576.836 301.773C575.488 301.773 574.451 301.996 573.725 302.441C573.01 302.887 572.652 303.496 572.652 304.27C572.652 304.867 572.816 305.359 573.145 305.746C573.484 306.133 574.023 306.496 574.762 306.836C575.5 307.176 576.473 307.574 577.68 308.031C578.887 308.477 579.93 308.939 580.809 309.42C581.688 309.889 582.361 310.463 582.83 311.143C583.311 311.811 583.551 312.672 583.551 313.727ZM591.162 299.734V319H588.244V299.734H591.162ZM589.738 292.527C590.219 292.527 590.629 292.686 590.969 293.002C591.32 293.307 591.496 293.787 591.496 294.443C591.496 295.088 591.32 295.568 590.969 295.885C590.629 296.201 590.219 296.359 589.738 296.359C589.234 296.359 588.812 296.201 588.473 295.885C588.145 295.568 587.98 295.088 587.98 294.443C587.98 293.787 588.145 293.307 588.473 293.002C588.812 292.686 589.234 292.527 589.738 292.527ZM600.285 319H597.35V291.648H600.285V319ZM603.414 299.734H606.543L610.797 310.914C611.043 311.57 611.271 312.203 611.482 312.812C611.693 313.41 611.881 313.984 612.045 314.535C612.209 315.086 612.338 315.619 612.432 316.135H612.555C612.719 315.549 612.953 314.781 613.258 313.832C613.562 312.871 613.891 311.893 614.242 310.896L618.268 299.734H621.414L613.029 321.83C612.584 323.014 612.062 324.045 611.465 324.924C610.879 325.803 610.164 326.477 609.32 326.945C608.477 327.426 607.457 327.666 606.262 327.666C605.711 327.666 605.225 327.631 604.803 327.561C604.381 327.502 604.018 327.432 603.713 327.35V325.012C603.971 325.07 604.281 325.123 604.645 325.17C605.02 325.217 605.406 325.24 605.805 325.24C606.531 325.24 607.158 325.1 607.686 324.818C608.225 324.549 608.688 324.15 609.074 323.623C609.461 323.096 609.795 322.469 610.076 321.742L611.131 319.035L603.414 299.734Z" fill="white"/>
</g>
</svg>
